<svg xmlns="http://www.w3.org/2000/svg" xmlns:xlink="http://www.w3.org/1999/xlink" width="300" zoomAndPan="magnify" viewBox="0 0 224.87999 225" height="300" preserveAspectRatio="xMidYMid meet" version="1.0"><defs><clipPath id="fc0acb94c7"><path d="M 0 0.0585938 L 224.761719 0.0585938 L 224.761719 224.9375 L 0 224.9375 Z M 0 0.0585938 " clip-rule="nonzero"/></clipPath><clipPath id="6b898657ae"><path d="M 17 5 L 186 5 L 186 201 L 17 201 Z M 17 5 " clip-rule="nonzero"/></clipPath><clipPath id="0da1264f77"><path d="M 90.789062 -28.058594 L 237.078125 32.074219 L 146.164062 253.238281 L -0.125 193.105469 Z M 90.789062 -28.058594 " clip-rule="nonzero"/></clipPath><clipPath id="f4fb6f55f0"><path d="M 90.789062 -28.058594 L 237.078125 32.074219 L 146.164062 253.238281 L -0.125 193.105469 Z M 90.789062 -28.058594 " clip-rule="nonzero"/></clipPath><clipPath id="9ff3a42472"><path d="M 90.789062 -28.058594 L 237.078125 32.074219 L 146.164062 253.238281 L -0.125 193.105469 Z M 90.789062 -28.058594 " clip-rule="nonzero"/></clipPath></defs><g clip-path="url(#fc0acb94c7)"><path fill="#ffffff" d="M 0 0.0585938 L 224.878906 0.0585938 L 224.878906 224.941406 L 0 224.941406 Z M 0 0.0585938 " fill-opacity="1" fill-rule="nonzero"/><path fill="#ffffff" d="M 0 0.0585938 L 224.878906 0.0585938 L 224.878906 224.941406 L 0 224.941406 Z M 0 0.0585938 " fill-opacity="1" fill-rule="nonzero"/></g><g clip-path="url(#6b898657ae)"><g clip-path="url(#0da1264f77)"><g clip-path="url(#f4fb6f55f0)"><g clip-path="url(#9ff3a42472)"><path fill="#000000" d="M 43.222656 150.664062 C 43.222656 150.664062 51.078125 126.195312 66.351562 119.226562 C 81.621094 112.257812 120.894531 97.492188 132.1875 76.84375 C 132.1875 76.84375 133.527344 93.046875 126.15625 101.261719 C 126.15625 101.261719 139.714844 93.585938 145.316406 77.019531 C 145.316406 77.019531 173.226562 45.136719 172.003906 5.296875 C 172.003906 5.296875 214.730469 86.289062 149.574219 135.777344 C 149.574219 135.777344 167.820312 133.238281 179.832031 122.519531 C 179.832031 122.519531 150.8125 161.972656 99.195312 166.847656 C 99.195312 166.847656 114.113281 169.96875 125.902344 167.585938 C 125.902344 167.585938 96.632812 181.847656 59.71875 174.304688 C 22.808594 166.757812 18.800781 200.84375 18.800781 200.84375 C 18.800781 200.84375 9.433594 170.09375 44.058594 159.839844 C 78.683594 149.589844 129.355469 143.117188 150.035156 112.277344 C 150.035156 112.277344 130.289062 133.066406 95.625 140.496094 C 60.957031 147.917969 43.222656 150.664062 43.222656 150.664062 " fill-opacity="1" fill-rule="evenodd"/></g></g></g></g></svg>